<svg preserveAspectRatio="none" overflow="visible" style="display: block;" width="454.383" height="216.043" viewBox="0 0 454.383 216.043" fill="none" xmlns="http://www.w3.org/2000/svg">
<g id="layer-connectors">
<path id="Vector" d="M124.684 161.646L0.985855 84.7656" stroke="#00CCD6" stroke-width="1.97129" stroke-linecap="round" stroke-linejoin="round" stroke-dasharray="7.89 6.9"/>
<path id="Vector_2" d="M117.187 163.723L35.871 214.483" stroke="#00CCD6" stroke-width="1.97129" stroke-linecap="round" stroke-linejoin="round" stroke-dasharray="7.89 6.9"/>
<path id="Vector_3" d="M129.12 157.703L209.943 214.378" stroke="#00CCD6" stroke-width="1.97129" stroke-linecap="round" stroke-linejoin="round" stroke-dasharray="7.89 6.9"/>
<path id="Vector_4" d="M141.871 151.981L308.871 56.7226" stroke="#00CCD6" stroke-width="1.97129" stroke-linecap="round" stroke-linejoin="round" stroke-dasharray="7.89 6.9"/>
<path id="Vector_5" d="M340.048 62.0958L250.354 0.985742" stroke="#00CCD6" stroke-width="1.97129" stroke-linecap="round" stroke-linejoin="round" stroke-dasharray="7.89 6.9"/>
<path id="Vector_6" d="M337.871 41.4355L374.871 20.2226" stroke="#00CCD6" stroke-width="1.97129" stroke-linecap="round" stroke-linejoin="round" stroke-dasharray="7.89 6.9"/>
<path id="Vector_7" d="M347.933 71.9523L453.397 133.062" stroke="#00CCD6" stroke-width="1.97129" stroke-linecap="round" stroke-linejoin="round" stroke-dasharray="7.89 6.9"/>
<g id="arrowheads">
<path id="Vector_8" d="M12.3208 81.3159L0.985855 84.7656L3.94279 96.1006" stroke="#00CCD6" stroke-width="1.97129" stroke-linecap="round" stroke-linejoin="round"/>
<path id="Vector_9" d="M37.8136 203.723L33.871 215.058L45.6988 214.565" stroke="#00CCD6" stroke-width="1.97129" stroke-linecap="round" stroke-linejoin="round"/>
<path id="Vector_10" d="M198.608 212.9L209.943 214.378L205.507 203.536" stroke="#00CCD6" stroke-width="1.97129" stroke-linecap="round" stroke-linejoin="round"/>
<path id="Vector_11" d="M294.871 60.6939L304.235 58.7226L299.306 68.0862" stroke="#00CCD6" stroke-width="1.97129" stroke-linecap="round" stroke-linejoin="round"/>
<path id="Vector_12" d="M257.747 1.97139L250.354 0.985742L252.818 8.87091" stroke="#00CCD6" stroke-width="1.97129" stroke-linecap="round" stroke-linejoin="round"/>
<path id="Vector_13" d="M370.679 18.7928L378.885 17.0365L374.721 25.6519" stroke="#00CCD6" stroke-width="1.97129" stroke-linecap="round" stroke-linejoin="round"/>
<path id="Vector_14" d="M444.527 123.699L453.397 133.062L442.062 134.048" stroke="#00CCD6" stroke-width="1.97129" stroke-linecap="round" stroke-linejoin="round"/>
</g>
</g>
</svg>
