<svg preserveAspectRatio="none" overflow="visible" style="display: block;" width="738.108" height="420.624" viewBox="0 0 738.108 420.624" fill="none" xmlns="http://www.w3.org/2000/svg">
<g id="layer-panels">
<path id="panel-top" d="M345.839 0.86244L454.26 62.4653L345.839 121.604L237.417 62.4653L345.839 0.86244Z" fill="#1A1A1A" stroke="white" stroke-width="1.72488" stroke-linecap="round" stroke-linejoin="round" stroke-dasharray="1.97 3.94"/>
<path id="panel-left-top" d="M99.427 94.4988L197.992 151.173L99.427 207.848L0.86244 151.173L99.427 94.4988Z" fill="#1A1A1A" stroke="white" stroke-width="1.72488" stroke-linecap="round" stroke-linejoin="round" stroke-dasharray="1.97 3.94"/>
<path id="panel-right-top" d="M577.217 37.1495L673.317 93.8242L577.217 148.035L481.116 91.36L577.217 37.1495Z" fill="#1A1A1A" stroke="white" stroke-width="1.72488" stroke-linecap="round" stroke-linejoin="round" stroke-dasharray="1.97 3.94"/>
<path id="panel-left-bottom" d="M121.116 283.228L219.681 337.439L121.116 391.649L22.5517 337.439L121.116 283.228Z" fill="#1A1A1A" stroke="white" stroke-width="1.72488" stroke-linecap="round" stroke-linejoin="round" stroke-dasharray="1.97 3.94"/>
<path id="panel-bottom" d="M385.264 308.877L483.829 363.087L385.264 419.762L286.7 365.551L385.264 308.877Z" fill="#1A1A1A" stroke="white" stroke-width="1.72488" stroke-linecap="round" stroke-linejoin="round" stroke-dasharray="1.97 3.94"/>
<path id="panel-right-bottom" d="M638.681 208.15L737.245 264.824L638.681 321.499L540.116 264.824L638.681 208.15Z" fill="#1A1A1A" stroke="white" stroke-width="1.72488" stroke-linecap="round" stroke-linejoin="round" stroke-dasharray="1.97 3.94"/>
</g>
</svg>
