<svg preserveAspectRatio="none" overflow="visible" style="display: block;" width="20" height="20" viewBox="0 0 20 20" fill="none" xmlns="http://www.w3.org/2000/svg">
<g id="Icon">
<path id="Vector" d="M10 18.3333C5.3975 18.3333 1.66667 14.6025 1.66667 10C1.66667 5.3975 5.3975 1.66667 10 1.66667C14.6025 1.66667 18.3333 5.3975 18.3333 10C18.3333 14.6025 14.6025 18.3333 10 18.3333ZM8.09167 16.3892C7.26951 14.6452 6.79323 12.7585 6.68917 10.8333H3.385C3.54716 12.1157 4.07827 13.3235 4.91381 14.3097C5.74935 15.296 6.85334 16.0184 8.09167 16.3892ZM8.35833 10.8333C8.48417 12.8658 9.065 14.775 10 16.46C10.9602 14.7305 11.5212 12.8079 11.6417 10.8333H8.35833ZM16.615 10.8333H13.3108C13.2067 12.7585 12.7305 14.6452 11.9083 16.3892C13.1467 16.0184 14.2507 15.296 15.0862 14.3097C15.9217 13.3235 16.4528 12.1157 16.615 10.8333ZM3.385 9.16667H6.68917C6.79323 7.24149 7.26951 5.35474 8.09167 3.61083C6.85334 3.98157 5.74935 4.70396 4.91381 5.69025C4.07827 6.67653 3.54716 7.88425 3.385 9.16667ZM8.35917 9.16667H11.6408C11.5207 7.19217 10.96 5.26961 10 3.54C9.03975 5.26954 8.47883 7.1921 8.35833 9.16667H8.35917ZM11.9083 3.61083C12.7305 5.35474 13.2067 7.24149 13.3108 9.16667H16.615C16.4528 7.88425 15.9217 6.67653 15.0862 5.69025C14.2507 4.70396 13.1467 3.98157 11.9083 3.61083Z" fill="#F2F4F6"/>
</g>
</svg>
